:SAMPLES-PER-SECOND 30
:FULLY-SPECIFIED
:DEGREES
75
root  60.9106 37.9207 10.464 -68.9595 85.4187 -69.1399
RightUpLeg  -25.6134 5.63649 2.743
RightLeg  4.67735 6.2937 0.477692
RightFoot  4.38912 -1.47453 9.65777
RightToes  1.16414e-010 -1.59028e-015 9.93923e-017
Spine  1.08038 -4.96202 -1.48295
Spine1  14.5086 -6.73456 4.47354
HEad  -4.90884 9.96881 0.136151
LeftShoulder1  9.93923e-017 0 1.22299e-017
LeftArm  16.8106 8.19465 -79.9982
LeftForeArm  -38.4048 -31.8684 20.12
LeftHand  0.821439 5.93072 1.08911
RightShoulder  1.98785e-016 -4.96962e-017 1.55301e-017
RightArm  17.9882 -57.0781 56.5249
RightForeArm  -29.1127 16.1989 -3.40463
RightHand  1.56166 -13.6963 -4.50577
LeftUpLeg  17.0679 -6.50035 4.53387
LeftLeg  14.8927 -7.84087 1.9855
LeftFoot  -7.47291 0.569096 -11.3328
LeftToes  4.22918e-010 -9.72932e-012 3.81536e-011
76
root  62.9481 37.3259 10.8639 -75.7431 83.639 -75.7044
RightUpLeg  -27.1046 5.52874 5.61407
RightLeg  12.8363 5.53357 -0.395911
RightFoot  6.89777 -1.1645 6.62356
RightToes  1.16414e-010 -1.59028e-015 9.93923e-017
Spine  1.37512 -4.7855 1.39887
Spine1  14.3894 -6.50386 4.42429
HEad  -6.91398 9.85585 -0.154404
LeftShoulder1  9.93923e-017 0 1.22299e-017
LeftArm  20.7913 11.9367 -81.9393
LeftForeArm  -42.6227 -27.459 18.2904
LeftHand  0.79637 5.83154 1.89617
RightShoulder  1.98785e-016 -4.96962e-017 1.55301e-017
RightArm  9.79843 -57.8892 57.1022
RightForeArm  -23.3977 13.6552 0.152896
RightHand  1.67586 -14.0719 -5.42794
LeftUpLeg  17.7095 -8.74528 7.04494
LeftLeg  20.2478 -4.81781 1.65673
LeftFoot  -4.25363 1.14709 -13.9854
LeftToes  4.22918e-010 -9.72932e-012 3.81536e-011
77
root  64.8666 36.7002 11.2709 -78.9467 81.7669 -78.0803
RightUpLeg  -28.1546 6.09891 8.66977
RightLeg  22.2663 5.99234 -1.50841
RightFoot  6.30011 -0.838662 4.90218
RightToes  1.16414e-010 -1.59028e-015 9.93923e-017
Spine  2.98287 -4.46516 4.14958
Spine1  13.861 -5.88378 4.28388
HEad  -9.26912 9.47631 -0.206366
LeftShoulder1  9.93923e-017 0 1.22299e-017
LeftArm  15.9668 15.9051 -83.6911
LeftForeArm  -38.779 -23.2184 11.4814
LeftHand  0.724161 5.55948 3.84307
RightShoulder  1.98785e-016 -4.96962e-017 1.55301e-017
RightArm  -1.5678 -57.0726 61.0958
RightForeArm  -15.3977 9.84775 3.47483
RightHand  1.69677 -14.2639 -5.33828
LeftUpLeg  15.88 -7.28783 10.7712
LeftLeg  29.5835 -5.94466 2.44659
LeftFoot  4.36073 1.83615 -11.9987
LeftToes  4.22918e-010 -9.72932e-012 3.81536e-011
78
root  66.5205 36.3177 11.6132 -85.3206 80.3424 -83.556
RightUpLeg  -27.8087 6.97401 10.8447
RightLeg  28.8476 5.43375 -2.5254
RightFoot  2.18028 -0.529355 3.90213
RightToes  1.16414e-010 -1.59028e-015 9.93923e-017
Spine  4.83985 -4.38993 6.20495
Spine1  13.8505 -5.47307 4.84374
HEad  -10.9942 8.65052 0.33702
LeftShoulder1  9.93923e-017 0 1.22299e-017
LeftArm  -0.734839 19.7853 -84.5945
LeftForeArm  -23.4755 -16.409 0.588846
LeftHand  0.744968 5.6948 4.71228
RightShoulder  1.98785e-016 -4.96962e-017 1.55301e-017
RightArm  -13.5835 -54.2395 67.8039
RightForeArm  -7.66884 6.07682 5.45278
RightHand  1.67952 -14.2887 -5.0392
LeftUpLeg  11.2729 -7.47841 13.3504
LeftLeg  40.9107 -7.03327 3.72144
LeftFoot  14.9516 1.94008 -7.55574
LeftToes  4.22918e-010 -9.72932e-012 3.81536e-011
